<svg width="303" height="196" viewBox="0 0 303 196" fill="none" xmlns="http://www.w3.org/2000/svg">
<rect x="1" y="101.497" width="219.467" height="53.3667" rx="5" stroke="url(#paint0_linear)" stroke-width="2"/>
<rect opacity="0.8" x="38.5889" y="123.985" width="142.611" height="9.22778" rx="4.61389" fill="#28F5BE"/>
<rect opacity="0.6" x="79.6945" y="53.5187" width="222.306" height="55.3667" rx="6" stroke="url(#paint1_linear)" stroke-linecap="round" stroke-dasharray="2 4"/>
<rect opacity="0.2" x="106.539" y="74.491" width="160.228" height="9.22778" rx="4.61389" fill="#28F5BE"/>
<path d="M241.987 142.105V149.152H240.99V142.981H239.4V142.105H241.987Z" fill="#484854"/>
<path d="M246.568 144.874C247.031 144.874 247.444 144.961 247.807 145.136C248.176 145.31 248.464 145.562 248.672 145.891C248.88 146.213 248.984 146.585 248.984 147.008C248.984 147.451 248.874 147.84 248.652 148.176C248.437 148.511 248.139 148.773 247.756 148.961C247.38 149.142 246.958 149.233 246.488 149.233C245.542 149.233 244.81 148.927 244.293 148.317C243.783 147.706 243.528 146.84 243.528 145.719C243.528 144.934 243.666 144.266 243.941 143.716C244.223 143.159 244.612 142.74 245.109 142.458C245.612 142.169 246.196 142.025 246.86 142.025C247.203 142.025 247.525 142.062 247.827 142.136C248.129 142.203 248.39 142.303 248.612 142.438L248.229 143.223C247.894 143.001 247.444 142.891 246.88 142.891C246.149 142.891 245.575 143.119 245.159 143.575C244.743 144.025 244.535 144.683 244.535 145.548C244.535 145.656 244.538 145.74 244.545 145.8C244.746 145.498 245.022 145.27 245.37 145.115C245.726 144.954 246.125 144.874 246.568 144.874ZM246.448 148.417C246.911 148.417 247.287 148.293 247.575 148.045C247.864 147.796 248.008 147.464 248.008 147.048C248.008 146.632 247.86 146.303 247.565 146.062C247.276 145.813 246.887 145.689 246.397 145.689C246.082 145.689 245.8 145.75 245.552 145.87C245.31 145.991 245.119 146.156 244.978 146.364C244.844 146.572 244.777 146.803 244.777 147.058C244.777 147.307 244.84 147.535 244.968 147.743C245.102 147.944 245.293 148.109 245.542 148.236C245.797 148.357 246.099 148.417 246.448 148.417Z" fill="#484854"/>
<path d="M253.003 143.766C253.52 143.766 253.983 143.881 254.392 144.109C254.801 144.337 255.12 144.656 255.348 145.065C255.583 145.474 255.701 145.948 255.701 146.484C255.701 147.021 255.583 147.498 255.348 147.914C255.12 148.323 254.801 148.642 254.392 148.87C253.983 149.098 253.52 149.213 253.003 149.213C252.62 149.213 252.268 149.139 251.946 148.991C251.63 148.843 251.362 148.629 251.141 148.347V151.105H250.174V143.817H251.1V144.662C251.315 144.367 251.587 144.146 251.916 143.998C252.245 143.844 252.607 143.766 253.003 143.766ZM252.922 148.367C253.265 148.367 253.57 148.29 253.838 148.135C254.114 147.974 254.328 147.753 254.483 147.471C254.644 147.182 254.724 146.854 254.724 146.484C254.724 146.115 254.644 145.79 254.483 145.508C254.328 145.219 254.114 144.998 253.838 144.844C253.57 144.689 253.265 144.612 252.922 144.612C252.587 144.612 252.281 144.693 252.006 144.854C251.738 145.008 251.523 145.226 251.362 145.508C251.208 145.79 251.131 146.115 251.131 146.484C251.131 146.854 251.208 147.182 251.362 147.471C251.516 147.753 251.731 147.974 252.006 148.135C252.281 148.29 252.587 148.367 252.922 148.367Z" fill="#484854"/>
<path d="M260.262 149.152L258.721 147.109L257.161 149.152H256.084L258.188 146.424L256.185 143.817H257.262L258.731 145.74L260.191 143.817H261.248L259.235 146.424L261.359 149.152H260.262Z" fill="#484854"/>
<path d="M4.87603 4.91072H1.77444V7.44705H5.3774V8.21876H0.830688V1.06199H5.32825V1.83862H1.77444V4.13901H4.87603V4.91072Z" fill="#484854"/>
<path d="M7.26982 2.90034L7.29931 3.56883C7.70565 3.05763 8.2365 2.80203 8.89189 2.80203C10.0159 2.80203 10.5828 3.43611 10.5926 4.70428V8.21876H9.68326V4.69936C9.67998 4.31596 9.59151 4.03251 9.41783 3.849C9.24743 3.6655 8.98036 3.57374 8.61663 3.57374C8.3217 3.57374 8.06283 3.65239 7.84 3.80968C7.61717 3.96697 7.44349 4.17342 7.31897 4.42902V8.21876H6.40963V2.90034H7.26982Z" fill="#484854"/>
<path d="M15.2475 8.21876C15.195 8.1139 15.1524 7.92712 15.1197 7.65841C14.6969 8.09752 14.1923 8.31707 13.6057 8.31707C13.0814 8.31707 12.6505 8.16961 12.313 7.87469C11.9787 7.57649 11.8116 7.19964 11.8116 6.74415C11.8116 6.19036 12.0213 5.76108 12.4408 5.45633C12.8635 5.1483 13.4566 4.99428 14.2201 4.99428H15.1049V4.57648C15.1049 4.25862 15.0099 4.00629 14.8198 3.81951C14.6298 3.62945 14.3496 3.53442 13.9793 3.53442C13.6549 3.53442 13.3829 3.61634 13.1633 3.78019C12.9438 3.94403 12.834 4.14229 12.834 4.37495H11.9198C11.9198 4.10952 12.0131 3.85392 12.1999 3.60815C12.39 3.35911 12.6456 3.16249 12.9667 3.01831C13.2911 2.87412 13.6467 2.80203 14.0334 2.80203C14.6461 2.80203 15.1262 2.95605 15.4736 3.26407C15.8209 3.56883 16.0011 3.98991 16.0142 4.52732V6.97517C16.0142 7.46343 16.0765 7.85175 16.201 8.14012V8.21876H15.2475ZM13.7384 7.5257C14.0235 7.5257 14.2939 7.45197 14.5495 7.3045C14.8051 7.15704 14.9902 6.96534 15.1049 6.72941V5.6382H14.3922C13.278 5.6382 12.721 5.96425 12.721 6.61635C12.721 6.90144 12.816 7.12427 13.006 7.28484C13.1961 7.44541 13.4402 7.5257 13.7384 7.5257Z" fill="#484854"/>
<path d="M21.9422 5.61853C21.9422 6.43121 21.7554 7.08495 21.3818 7.57976C21.0083 8.0713 20.5069 8.31707 19.8777 8.31707C19.206 8.31707 18.6866 8.07949 18.3196 7.60434L18.2753 8.21876H17.4397V0.668762H18.349V3.48527C18.7161 3.02978 19.2223 2.80203 19.8679 2.80203C20.5134 2.80203 21.0197 3.04616 21.3867 3.53442C21.757 4.02268 21.9422 4.69117 21.9422 5.53989V5.61853ZM21.0328 5.51531C21.0328 4.89598 20.9132 4.41755 20.674 4.08003C20.4348 3.7425 20.0907 3.57374 19.6418 3.57374C19.0421 3.57374 18.6112 3.85228 18.349 4.40935V6.70975C18.6276 7.26682 19.0618 7.54536 19.6516 7.54536C20.0874 7.54536 20.4266 7.3766 20.6691 7.03907C20.9116 6.70155 21.0328 6.19363 21.0328 5.51531Z" fill="#484854"/>
<path d="M24.0804 8.21876H23.171V0.668762H24.0804V8.21876Z" fill="#484854"/>
<path d="M27.7472 8.31707C27.0263 8.31707 26.4397 8.08113 25.9875 7.60926C25.5353 7.13411 25.3092 6.50002 25.3092 5.70701V5.53989C25.3092 5.01231 25.4091 4.54207 25.609 4.12918C25.8122 3.71301 26.094 3.3886 26.4545 3.15594C26.8182 2.92 27.2115 2.80203 27.6342 2.80203C28.3256 2.80203 28.863 3.02978 29.2464 3.48527C29.6298 3.94076 29.8215 4.59286 29.8215 5.44158V5.82006H26.2185C26.2317 6.34437 26.384 6.76873 26.6757 7.09314C26.9706 7.41428 27.3442 7.57485 27.7964 7.57485C28.1175 7.57485 28.3895 7.50931 28.6123 7.37823C28.8352 7.24716 29.0301 7.07348 29.1973 6.85721L29.7527 7.28976C29.307 7.97463 28.6385 8.31707 27.7472 8.31707ZM27.6342 3.54917C27.2672 3.54917 26.9591 3.68352 26.7101 3.95223C26.461 4.21766 26.307 4.59122 26.248 5.07293H28.9122V5.00411C28.886 4.54207 28.7614 4.18489 28.5386 3.93256C28.3158 3.67697 28.0143 3.54917 27.6342 3.54917Z" fill="#484854"/>
<path d="M30.6571 5.51531C30.6571 4.69936 30.8505 4.04398 31.2371 3.54917C31.6238 3.05108 32.1301 2.80203 32.756 2.80203C33.3786 2.80203 33.8718 3.01503 34.2355 3.44103V0.668762H35.1448V8.21876H34.3092L34.265 7.64858C33.9013 8.09424 33.395 8.31707 32.7462 8.31707C32.1301 8.31707 31.6271 8.06475 31.2371 7.5601C30.8505 7.05546 30.6571 6.3968 30.6571 5.58413V5.51531ZM31.5665 5.61853C31.5665 6.22149 31.691 6.69336 31.94 7.03416C32.1891 7.37496 32.5332 7.54536 32.9723 7.54536C33.549 7.54536 33.9701 7.28648 34.2355 6.76873V4.32579C33.9635 3.82443 33.5457 3.57374 32.9821 3.57374C32.5364 3.57374 32.1891 3.74578 31.94 4.08986C31.691 4.43393 31.5665 4.94349 31.5665 5.61853Z" fill="#484854"/>
<path d="M89.3892 8.21878H88.4405V4.91074H84.8326V8.21878H83.8889V1.06201H84.8326V4.13903H88.4405V1.06201H89.3892V8.21878Z" fill="#484854"/>
<path d="M90.6819 5.51042C90.6819 4.98939 90.7835 4.52079 90.9867 4.10462C91.1931 3.68845 91.4782 3.36732 91.8419 3.14121C92.209 2.9151 92.6268 2.80205 93.0954 2.80205C93.8196 2.80205 94.4045 3.05273 94.8501 3.5541C95.2991 4.05547 95.5236 4.72232 95.5236 5.55465V5.61855C95.5236 6.13631 95.4236 6.60163 95.2237 7.01452C95.0271 7.42413 94.7436 7.74363 94.3734 7.97301C94.0063 8.2024 93.5836 8.31709 93.1052 8.31709C92.3843 8.31709 91.7993 8.06641 91.3504 7.56504C90.9047 7.06367 90.6819 6.4001 90.6819 5.57432V5.51042ZM91.5962 5.61855C91.5962 6.2084 91.7322 6.68191 92.0042 7.0391C92.2794 7.39628 92.6464 7.57487 93.1052 7.57487C93.5672 7.57487 93.9343 7.39464 94.2062 7.03418C94.4782 6.67044 94.6142 6.16252 94.6142 5.51042C94.6142 4.92713 94.4749 4.45525 94.1964 4.09479C93.9211 3.73105 93.5541 3.54919 93.0954 3.54919C92.6464 3.54919 92.2843 3.72778 92.0091 4.08496C91.7338 4.44214 91.5962 4.95334 91.5962 5.61855Z" fill="#484854"/>
<path d="M98.3401 6.98503L99.6574 2.90036H100.586L98.6792 8.21878H97.9862L96.0593 2.90036H96.9883L98.3401 6.98503Z" fill="#484854"/>
<path d="M103.599 8.31709C102.879 8.31709 102.292 8.08115 101.84 7.60928C101.388 7.13413 101.161 6.50004 101.161 5.70703V5.53991C101.161 5.01233 101.261 4.54209 101.461 4.1292C101.664 3.71303 101.946 3.38862 102.307 3.15596C102.67 2.92002 103.064 2.80205 103.486 2.80205C104.178 2.80205 104.715 3.0298 105.099 3.48529C105.482 3.94078 105.674 4.59288 105.674 5.4416V5.82008H102.071C102.084 6.34439 102.236 6.76875 102.528 7.09316C102.823 7.4143 103.196 7.57487 103.649 7.57487C103.97 7.57487 104.242 7.50933 104.465 7.37826C104.687 7.24718 104.882 7.0735 105.05 6.85723L105.605 7.28978C105.159 7.97465 104.491 8.31709 103.599 8.31709ZM103.486 3.54919C103.119 3.54919 102.811 3.68354 102.562 3.95225C102.313 4.21768 102.159 4.59124 102.1 5.07295H104.764V5.00413C104.738 4.54209 104.614 4.18491 104.391 3.93258C104.168 3.67699 103.867 3.54919 103.486 3.54919Z" fill="#484854"/>
<path d="M109.301 3.71631C109.164 3.69337 109.015 3.6819 108.854 3.6819C108.258 3.6819 107.853 3.93586 107.64 4.44378V8.21878H106.731V2.90036H107.615L107.63 3.51478C107.928 3.03963 108.351 2.80205 108.898 2.80205C109.075 2.80205 109.21 2.82499 109.301 2.87087V3.71631Z" fill="#484854"/>
<path d="M231.533 133.213H267.186" stroke="#35353D"/>
<path d="M231.533 155.863H267.186" stroke="#35353D"/>
<path d="M200.07 181.03L198.529 178.986L196.969 181.03H195.892L197.996 178.302L195.993 175.695H197.07L198.54 177.617L199.999 175.695H201.056L199.043 178.302L201.167 181.03H200.07Z" fill="#484854"/>
<path d="M206.068 177.335C206.47 177.49 206.779 177.711 206.994 178C207.209 178.288 207.316 178.634 207.316 179.037C207.316 179.46 207.202 179.829 206.974 180.144C206.746 180.453 206.42 180.691 205.997 180.859C205.574 181.027 205.078 181.11 204.507 181.11C203.944 181.11 203.45 181.027 203.028 180.859C202.611 180.691 202.289 180.453 202.061 180.144C201.833 179.829 201.719 179.46 201.719 179.037C201.719 178.634 201.823 178.288 202.031 178C202.246 177.711 202.554 177.49 202.957 177.335C202.635 177.181 202.39 176.976 202.222 176.721C202.054 176.466 201.971 176.164 201.971 175.815C201.971 175.426 202.075 175.087 202.283 174.799C202.497 174.51 202.796 174.289 203.179 174.134C203.561 173.98 204.004 173.903 204.507 173.903C205.017 173.903 205.464 173.98 205.846 174.134C206.235 174.289 206.534 174.51 206.742 174.799C206.957 175.087 207.064 175.426 207.064 175.815C207.064 176.158 206.977 176.46 206.803 176.721C206.635 176.976 206.39 177.181 206.068 177.335ZM204.507 174.718C204.031 174.718 203.655 174.822 203.38 175.03C203.105 175.232 202.967 175.507 202.967 175.856C202.967 176.205 203.101 176.48 203.37 176.681C203.645 176.882 204.024 176.983 204.507 176.983C204.997 176.983 205.38 176.882 205.655 176.681C205.937 176.48 206.078 176.205 206.078 175.856C206.078 175.507 205.933 175.232 205.645 175.03C205.363 174.822 204.984 174.718 204.507 174.718ZM204.507 180.295C205.064 180.295 205.504 180.181 205.826 179.953C206.148 179.718 206.309 179.402 206.309 179.007C206.309 178.617 206.148 178.312 205.826 178.09C205.504 177.862 205.064 177.748 204.507 177.748C203.95 177.748 203.514 177.862 203.199 178.09C202.883 178.312 202.726 178.617 202.726 179.007C202.726 179.402 202.883 179.718 203.199 179.953C203.514 180.181 203.95 180.295 204.507 180.295Z" fill="#484854"/>
<path d="M223.144 159.219L223.144 194.872" stroke="#35353D"/>
<path d="M180.361 159.428L180.361 195.081" stroke="#35353D"/>
<path opacity="0.4" d="M8.38889 17.4465V93.7854" stroke="url(#paint2_linear)"/>
<path opacity="0.4" d="M83.8889 17.4465L83.8889 42.6132" stroke="url(#paint3_linear)"/>
<defs>
<linearGradient id="paint0_linear" x1="227.094" y1="104.213" x2="18.1004" y2="174.141" gradientUnits="userSpaceOnUse">
<stop stop-color="#28F5BE"/>
<stop offset="1" stop-color="#28F5BE" stop-opacity="0"/>
</linearGradient>
<linearGradient id="paint1_linear" x1="190.847" y1="53.5187" x2="180.204" y2="89.8516" gradientUnits="userSpaceOnUse">
<stop stop-color="#28F5BE"/>
<stop offset="1" stop-color="#28F5BE" stop-opacity="0"/>
</linearGradient>
<linearGradient id="paint2_linear" x1="8.88889" y1="17.4465" x2="8.88889" y2="93.7854" gradientUnits="userSpaceOnUse">
<stop stop-color="#737380"/>
<stop offset="1" stop-color="#737380" stop-opacity="0"/>
</linearGradient>
<linearGradient id="paint3_linear" x1="84.3889" y1="17.4465" x2="84.3889" y2="42.6132" gradientUnits="userSpaceOnUse">
<stop stop-color="#737380"/>
<stop offset="1" stop-color="#737380" stop-opacity="0"/>
</linearGradient>
</defs>
</svg>
