<svg width="56" height="164" viewBox="0 0 56 164" fill="none" xmlns="http://www.w3.org/2000/svg">
<g opacity="0.3">
<path d="M4.30803 8.28C5.76003 8.28 6.72003 7.608 7.39203 6.696L6.54003 6.228C6.08403 6.912 5.25603 7.392 4.30803 7.392C2.59203 7.392 1.26003 6.036 1.26003 4.14C1.26003 2.232 2.59203 0.888 4.30803 0.888C5.25603 0.888 6.08403 1.38 6.54003 2.052L7.38003 1.584C6.74403 0.684 5.76003 0 4.30803 0C2.04003 0 0.228027 1.68 0.228027 4.14C0.228027 6.6 2.04003 8.28 4.30803 8.28Z" fill="#737380"/>
<path d="M11.1574 8.28C12.9214 8.28 14.0254 6.912 14.0254 5.232C14.0254 3.552 12.9214 2.196 11.1574 2.196C9.3934 2.196 8.2894 3.552 8.2894 5.232C8.2894 6.912 9.3934 8.28 11.1574 8.28ZM11.1574 7.476C9.9214 7.476 9.2254 6.42 9.2254 5.232C9.2254 4.056 9.9214 3 11.1574 3C12.3934 3 13.0774 4.056 13.0774 5.232C13.0774 6.42 12.3934 7.476 11.1574 7.476Z" fill="#737380"/>
<path d="M15.4926 8.136H16.3926V4.032C16.6566 3.564 17.4126 3.108 17.9646 3.108C18.1086 3.108 18.2166 3.12 18.3246 3.144V2.22C17.5326 2.22 16.8606 2.664 16.3926 3.276V2.34H15.4926V8.136Z" fill="#737380"/>
<path d="M19.1175 5.232C19.1175 7.044 20.3535 8.28 22.0695 8.28C23.0175 8.28 23.7975 7.968 24.3735 7.392L23.9415 6.804C23.4855 7.272 22.8135 7.536 22.1535 7.536C20.9055 7.536 20.1375 6.624 20.0655 5.532H24.7575V5.304C24.7575 3.564 23.7255 2.196 21.9735 2.196C20.3175 2.196 19.1175 3.552 19.1175 5.232ZM21.9615 2.94C23.2815 2.94 23.8575 4.008 23.8695 4.872H20.0655C20.1135 3.984 20.7255 2.94 21.9615 2.94Z" fill="#737380"/>
<path d="M25.7112 7.368C26.2992 7.992 27.1032 8.28 28.0512 8.28C29.5512 8.28 30.3312 7.5 30.3312 6.528C30.3312 5.244 29.1672 4.956 28.1592 4.728C27.4032 4.548 26.7432 4.368 26.7432 3.804C26.7432 3.288 27.2352 2.928 28.0272 2.928C28.7712 2.928 29.4072 3.24 29.7552 3.66L30.1752 3.036C29.7072 2.568 29.0112 2.196 28.0272 2.196C26.6472 2.196 25.8672 2.964 25.8672 3.864C25.8672 5.064 26.9832 5.328 27.9672 5.556C28.7472 5.748 29.4552 5.952 29.4552 6.588C29.4552 7.152 28.9752 7.548 28.0872 7.548C27.2952 7.548 26.5632 7.164 26.1792 6.72L25.7112 7.368Z" fill="#737380"/>
</g>
<g opacity="0.3">
<path d="M2.532 39.136H3.528V32.02H6.072V31.132H0V32.02H2.532V39.136Z" fill="#737380"/>
<path d="M7.80375 32.368C8.13975 32.368 8.41575 32.092 8.41575 31.756C8.41575 31.42 8.13975 31.156 7.80375 31.156C7.47975 31.156 7.20375 31.42 7.20375 31.756C7.20375 32.092 7.47975 32.368 7.80375 32.368ZM7.35975 39.136H8.25975V33.34H7.35975V39.136Z" fill="#737380"/>
<path d="M10.9551 41.344V38.26C11.4231 38.908 12.1191 39.28 12.9111 39.28C14.4351 39.28 15.4911 38.104 15.4911 36.232C15.4911 34.348 14.4351 33.196 12.9111 33.196C12.0951 33.196 11.3751 33.616 10.9551 34.204V33.34H10.0551V41.344H10.9551ZM14.5431 36.232C14.5431 37.516 13.8471 38.476 12.6831 38.476C11.9751 38.476 11.2671 38.044 10.9551 37.54V34.924C11.2671 34.42 11.9751 34 12.6831 34C13.8471 34 14.5431 34.948 14.5431 36.232Z" fill="#737380"/>
<path d="M19.4777 39.28C21.2417 39.28 22.3457 37.912 22.3457 36.232C22.3457 34.552 21.2417 33.196 19.4777 33.196C17.7137 33.196 16.6097 34.552 16.6097 36.232C16.6097 37.912 17.7137 39.28 19.4777 39.28ZM19.4777 38.476C18.2417 38.476 17.5457 37.42 17.5457 36.232C17.5457 35.056 18.2417 34 19.4777 34C20.7137 34 21.3977 35.056 21.3977 36.232C21.3977 37.42 20.7137 38.476 19.4777 38.476Z" fill="#737380"/>
<path d="M23.8129 39.136H24.7129V35.032C24.9769 34.564 25.7329 34.108 26.2849 34.108C26.4289 34.108 26.5369 34.12 26.6449 34.144V33.22C25.8529 33.22 25.1809 33.664 24.7129 34.276V33.34H23.8129V39.136Z" fill="#737380"/>
<path d="M27.7618 40.624C28.4458 41.296 29.1178 41.488 30.1018 41.488C31.5178 41.488 32.8618 40.888 32.8618 38.968V33.34H31.9618V34.216C31.4938 33.58 30.7978 33.196 30.0178 33.196C28.4938 33.196 27.4378 34.348 27.4378 36.208C27.4378 38.08 28.5058 39.208 30.0178 39.208C30.8338 39.208 31.5418 38.764 31.9618 38.176V39.004C31.9618 40.276 31.0618 40.744 30.1018 40.744C29.2738 40.744 28.6978 40.528 28.2178 39.952L27.7618 40.624ZM31.9618 37.468C31.6498 37.972 30.9538 38.416 30.2338 38.416C29.0698 38.416 28.3738 37.48 28.3738 36.208C28.3738 34.924 29.0698 34 30.2338 34C30.9538 34 31.6498 34.432 31.9618 34.936V37.468Z" fill="#737380"/>
<path d="M34.6644 39.136H35.5644V35.032C35.8284 34.564 36.5844 34.108 37.1364 34.108C37.2804 34.108 37.3884 34.12 37.4964 34.144V33.22C36.7044 33.22 36.0324 33.664 35.5644 34.276V33.34H34.6644V39.136Z" fill="#737380"/>
<path d="M42.2494 39.136H43.1494V35.152C43.1494 33.748 42.1294 33.196 40.9054 33.196C39.9574 33.196 39.2134 33.508 38.5894 34.156L39.0094 34.78C39.5254 34.228 40.0894 33.976 40.7854 33.976C41.6254 33.976 42.2494 34.42 42.2494 35.2V36.244C41.7814 35.704 41.1214 35.452 40.3294 35.452C39.3454 35.452 38.3014 36.064 38.3014 37.36C38.3014 38.62 39.3454 39.28 40.3294 39.28C41.1094 39.28 41.7694 39.004 42.2494 38.476V39.136ZM42.2494 37.912C41.9014 38.392 41.2894 38.632 40.6534 38.632C39.8134 38.632 39.2254 38.104 39.2254 37.372C39.2254 36.628 39.8134 36.1 40.6534 36.1C41.2894 36.1 41.9014 36.34 42.2494 36.82V37.912Z" fill="#737380"/>
<path d="M45.2055 39.136H46.1055V34.132H47.2815V33.34H46.1055V32.896C46.1055 32.164 46.4295 31.756 47.0175 31.756C47.2455 31.756 47.4015 31.816 47.5335 31.9L47.7615 31.216C47.5335 31.072 47.2215 31.012 46.8855 31.012C45.8775 31.012 45.2055 31.696 45.2055 32.896V33.34H44.2455V34.132H45.2055V39.136ZM48.7935 32.368C49.1295 32.368 49.4055 32.092 49.4055 31.756C49.4055 31.42 49.1295 31.156 48.7935 31.156C48.4695 31.156 48.1935 31.42 48.1935 31.756C48.1935 32.092 48.4695 32.368 48.7935 32.368ZM48.3495 39.136H49.2495V33.34H48.3495V39.136Z" fill="#737380"/>
<path d="M54.683 39.136H55.583V35.152C55.583 33.748 54.563 33.196 53.339 33.196C52.391 33.196 51.647 33.508 51.023 34.156L51.443 34.78C51.959 34.228 52.523 33.976 53.219 33.976C54.059 33.976 54.683 34.42 54.683 35.2V36.244C54.215 35.704 53.555 35.452 52.763 35.452C51.779 35.452 50.735 36.064 50.735 37.36C50.735 38.62 51.779 39.28 52.763 39.28C53.543 39.28 54.203 39.004 54.683 38.476V39.136ZM54.683 37.912C54.335 38.392 53.723 38.632 53.087 38.632C52.247 38.632 51.659 38.104 51.659 37.372C51.659 36.628 52.247 36.1 53.087 36.1C53.723 36.1 54.335 36.34 54.683 36.82V37.912Z" fill="#737380"/>
</g>
<g opacity="0.3">
<path d="M2.368 61.46L4.396 59.732H3.46L1.684 61.46H2.368ZM1.552 70.136H2.548V62.132H1.552V70.136Z" fill="#737380"/>
<path d="M4.0511 67.232C4.0511 68.96 5.2151 70.28 6.9431 70.28C7.9991 70.28 8.6231 69.848 9.0671 69.272L8.4671 68.72C8.0831 69.236 7.5911 69.476 6.9911 69.476C5.7551 69.476 4.9871 68.516 4.9871 67.232C4.9871 65.948 5.7551 65 6.9911 65C7.5911 65 8.0831 65.228 8.4671 65.756L9.0671 65.204C8.6231 64.628 7.9991 64.196 6.9431 64.196C5.2151 64.196 4.0511 65.516 4.0511 67.232Z" fill="#737380"/>
<path d="M12.8605 70.28C14.6245 70.28 15.7285 68.912 15.7285 67.232C15.7285 65.552 14.6245 64.196 12.8605 64.196C11.0965 64.196 9.9925 65.552 9.9925 67.232C9.9925 68.912 11.0965 70.28 12.8605 70.28ZM12.8605 69.476C11.6245 69.476 10.9285 68.42 10.9285 67.232C10.9285 66.056 11.6245 65 12.8605 65C14.0965 65 14.7805 66.056 14.7805 67.232C14.7805 68.42 14.0965 69.476 12.8605 69.476Z" fill="#737380"/>
<path d="M21.1077 70.136H22.0077V66.068C22.0077 64.808 21.3717 64.196 20.1597 64.196C19.2957 64.196 18.5037 64.7 18.0957 65.18V64.34H17.1957V70.136H18.0957V65.9C18.4317 65.432 19.1037 65 19.8117 65C20.5917 65 21.1077 65.324 21.1077 66.344V70.136Z" fill="#737380"/>
<path d="M23.4691 67.232C23.4691 69.044 24.7051 70.28 26.4211 70.28C27.3691 70.28 28.1491 69.968 28.7251 69.392L28.2931 68.804C27.8371 69.272 27.1651 69.536 26.5051 69.536C25.2571 69.536 24.4891 68.624 24.4171 67.532H29.1091V67.304C29.1091 65.564 28.0771 64.196 26.3251 64.196C24.6691 64.196 23.4691 65.552 23.4691 67.232ZM26.3131 64.94C27.6331 64.94 28.2091 66.008 28.2211 66.872H24.4171C24.4651 65.984 25.0771 64.94 26.3131 64.94Z" fill="#737380"/>
<path d="M30.0628 69.368C30.6508 69.992 31.4548 70.28 32.4028 70.28C33.9028 70.28 34.6828 69.5 34.6828 68.528C34.6828 67.244 33.5188 66.956 32.5108 66.728C31.7548 66.548 31.0948 66.368 31.0948 65.804C31.0948 65.288 31.5868 64.928 32.3788 64.928C33.1228 64.928 33.7588 65.24 34.1068 65.66L34.5268 65.036C34.0588 64.568 33.3628 64.196 32.3788 64.196C30.9988 64.196 30.2188 64.964 30.2188 65.864C30.2188 67.064 31.3348 67.328 32.3188 67.556C33.0988 67.748 33.8068 67.952 33.8068 68.588C33.8068 69.152 33.3268 69.548 32.4388 69.548C31.6468 69.548 30.9148 69.164 30.5308 68.72L30.0628 69.368Z" fill="#737380"/>
</g>
<g opacity="0.3">
<path d="M1.552 101.136H5.2C6.664 101.136 7.516 100.26 7.516 98.976C7.516 98.016 6.808 97.14 5.956 97.008C6.688 96.852 7.36 96.18 7.36 95.172C7.36 93.972 6.508 93.132 5.116 93.132H1.552V101.136ZM2.548 96.6V94.02H4.948C5.848 94.02 6.328 94.596 6.328 95.316C6.328 96.048 5.848 96.6 4.948 96.6H2.548ZM2.548 100.248V97.488H4.996C5.98 97.488 6.484 98.136 6.484 98.868C6.484 99.72 5.932 100.248 4.996 100.248H2.548Z" fill="#737380"/>
<path d="M11.5949 101.28C13.3589 101.28 14.4629 99.912 14.4629 98.232C14.4629 96.552 13.3589 95.196 11.5949 95.196C9.83088 95.196 8.72688 96.552 8.72688 98.232C8.72688 99.912 9.83088 101.28 11.5949 101.28ZM11.5949 100.476C10.3589 100.476 9.66288 99.42 9.66288 98.232C9.66288 97.056 10.3589 96 11.5949 96C12.8309 96 13.5149 97.056 13.5149 98.232C13.5149 99.42 12.8309 100.476 11.5949 100.476Z" fill="#737380"/>
<path d="M17.3941 101.28C17.9221 101.28 18.2461 101.124 18.4741 100.908L18.2101 100.236C18.0901 100.368 17.8501 100.476 17.5981 100.476C17.2021 100.476 17.0101 100.164 17.0101 99.732V96.132H18.1861V95.34H17.0101V93.756H16.1101V95.34H15.1501V96.132H16.1101V99.924C16.1101 100.788 16.5421 101.28 17.3941 101.28Z" fill="#737380"/>
<path d="M21.7974 93.852C22.0014 94.152 22.2294 94.488 22.7094 94.488C23.4654 94.488 23.8734 93.816 23.8734 92.88H23.3334C23.3334 93.6 23.0814 93.912 22.7574 93.912C22.4934 93.912 22.3494 93.684 22.1814 93.444C21.9774 93.144 21.7614 92.808 21.2814 92.808C20.5254 92.808 20.1174 93.48 20.1174 94.416H20.6574C20.6574 93.696 20.9094 93.384 21.2334 93.384C21.4974 93.384 21.6414 93.612 21.7974 93.852ZM21.9894 101.28C23.7534 101.28 24.8574 99.912 24.8574 98.232C24.8574 96.552 23.7534 95.196 21.9894 95.196C20.2254 95.196 19.1214 96.552 19.1214 98.232C19.1214 99.912 20.2254 101.28 21.9894 101.28ZM21.9894 100.476C20.7534 100.476 20.0574 99.42 20.0574 98.232C20.0574 97.056 20.7534 96 21.9894 96C23.2254 96 23.9094 97.056 23.9094 98.232C23.9094 99.42 23.2254 100.476 21.9894 100.476Z" fill="#737380"/>
<path d="M25.9886 98.232C25.9886 100.044 27.2246 101.28 28.9406 101.28C29.8886 101.28 30.6686 100.968 31.2446 100.392L30.8126 99.804C30.3566 100.272 29.6846 100.536 29.0246 100.536C27.7766 100.536 27.0086 99.624 26.9366 98.532H31.6286V98.304C31.6286 96.564 30.5966 95.196 28.8446 95.196C27.1886 95.196 25.9886 96.552 25.9886 98.232ZM28.8326 95.94C30.1526 95.94 30.7286 97.008 30.7406 97.872H26.9366C26.9846 96.984 27.5966 95.94 28.8326 95.94Z" fill="#737380"/>
<path d="M32.5823 100.368C33.1703 100.992 33.9743 101.28 34.9223 101.28C36.4223 101.28 37.2023 100.5 37.2023 99.528C37.2023 98.244 36.0383 97.956 35.0303 97.728C34.2743 97.548 33.6143 97.368 33.6143 96.804C33.6143 96.288 34.1063 95.928 34.8983 95.928C35.6423 95.928 36.2783 96.24 36.6263 96.66L37.0463 96.036C36.5783 95.568 35.8823 95.196 34.8983 95.196C33.5183 95.196 32.7383 95.964 32.7383 96.864C32.7383 98.064 33.8543 98.328 34.8383 98.556C35.6183 98.748 36.3263 98.952 36.3263 99.588C36.3263 100.152 35.8463 100.548 34.9583 100.548C34.1663 100.548 33.4343 100.164 33.0503 99.72L32.5823 100.368Z" fill="#737380"/>
</g>
<g opacity="0.3">
<path d="M1.552 132.136H2.548V128.488H6.712V127.6H2.548V125.02H6.796V124.132H1.552V132.136Z" fill="#737380"/>
<path d="M10.6457 132.28C12.4097 132.28 13.5137 130.912 13.5137 129.232C13.5137 127.552 12.4097 126.196 10.6457 126.196C8.88166 126.196 7.77766 127.552 7.77766 129.232C7.77766 130.912 8.88166 132.28 10.6457 132.28ZM10.6457 131.476C9.40966 131.476 8.71366 130.42 8.71366 129.232C8.71366 128.056 9.40966 127 10.6457 127C11.8817 127 12.5657 128.056 12.5657 129.232C12.5657 130.42 11.8817 131.476 10.6457 131.476Z" fill="#737380"/>
<path d="M14.9808 132.136H15.8808V128.032C16.1448 127.564 16.9008 127.108 17.4528 127.108C17.5968 127.108 17.7048 127.12 17.8128 127.144V126.22C17.0208 126.22 16.3488 126.664 15.8808 127.276V126.34H14.9808V132.136Z" fill="#737380"/>
<path d="M25.9378 132.136H26.8378V127.948C26.8378 126.784 26.2738 126.196 25.2178 126.196C24.3778 126.196 23.5978 126.748 23.2738 127.276C23.1058 126.676 22.6018 126.196 21.7138 126.196C20.8618 126.196 20.0818 126.808 19.8418 127.18V126.34H18.9418V132.136H19.8418V127.9C20.1538 127.432 20.7778 127 21.3658 127C22.1218 127 22.4338 127.468 22.4338 128.2V132.136H23.3338V127.888C23.6338 127.432 24.2698 127 24.8698 127C25.6138 127 25.9378 127.468 25.9378 128.2V132.136Z" fill="#737380"/>
</g>
<g opacity="0.3">
<path d="M1.22803 159.14C1.22803 161.624 3.06403 163.292 5.34403 163.292C6.65203 163.292 7.74403 162.74 8.48803 161.912V159.02H4.74403V159.908H7.49203V161.54C7.09603 161.936 6.30403 162.404 5.34403 162.404C3.59203 162.404 2.26003 161.036 2.26003 159.14C2.26003 157.232 3.59203 155.888 5.34403 155.888C6.30403 155.888 7.15603 156.344 7.66003 156.992L8.45203 156.5C7.74403 155.624 6.76003 155 5.34403 155C3.06403 155 1.22803 156.656 1.22803 159.14Z" fill="#737380"/>
<path d="M10.0707 163.136H10.9707V159.032C11.2347 158.564 11.9907 158.108 12.5427 158.108C12.6867 158.108 12.7947 158.12 12.9027 158.144V157.22C12.1107 157.22 11.4387 157.664 10.9707 158.276V157.34H10.0707V163.136Z" fill="#737380"/>
<path d="M14.4757 156.368C14.8117 156.368 15.0877 156.092 15.0877 155.756C15.0877 155.42 14.8117 155.156 14.4757 155.156C14.1517 155.156 13.8757 155.42 13.8757 155.756C13.8757 156.092 14.1517 156.368 14.4757 156.368ZM14.0317 163.136H14.9317V157.34H14.0317V163.136Z" fill="#737380"/>
<path d="M20.927 163.136H21.827V155.132H20.927V158.216C20.459 157.58 19.751 157.196 18.971 157.196C17.447 157.196 16.391 158.396 16.391 160.244C16.391 162.128 17.459 163.28 18.971 163.28C19.787 163.28 20.495 162.86 20.927 162.272V163.136ZM20.927 161.564C20.603 162.068 19.907 162.476 19.187 162.476C18.023 162.476 17.327 161.528 17.327 160.244C17.327 158.96 18.023 158 19.187 158C19.907 158 20.603 158.432 20.927 158.936V161.564Z" fill="#737380"/>
</g>
</svg>
